<?xml version="1.0" encoding="UTF-8" standalone="no"?>
<svg width="96px" height="89px" viewBox="0 0 96 89" version="1.1" xmlns="http://www.w3.org/2000/svg" xmlns:xlink="http://www.w3.org/1999/xlink">
    <!-- Generator: Sketch 41.2 (35397) - http://www.bohemiancoding.com/sketch -->
    <title>noun_338572_cc</title>
    <desc>Created with Sketch.</desc>
    <defs></defs>
    <g id="Home" stroke="none" stroke-width="1" fill="none" fill-rule="evenodd">
        <g id="HOMEPAGE" transform="translate(-1041.000000, -4422.000000)" fill="#EE4C80">
            <g id="fakeFooter" transform="translate(-107.000000, 2780.000000)">
                <g id="noun_338572_cc" style="mix-blend-mode: screen;" transform="translate(1148.008193, 1642.460824)">
                    <g id="Group" transform="translate(0.000000, -0.000000)">
                        <path d="M59.48231,6.37117 C56.76822,6.37117 54.57606,8.563335 54.57606,11.27742 L54.57606,23.08992 C54.57606,25.804006 56.76822,27.99617 59.48231,27.99617 L84.04481,27.99617 C86.7589,27.99617 88.95106,25.804006 88.95106,23.08992 L88.95106,11.27742 C88.95106,8.563335 86.7589,6.37117 84.04481,6.37117 L59.48231,6.37117 Z M59.48231,7.83992 L61.16981,7.83992 L56.07606,11.05867 C56.19242,9.264138 57.65837,7.83992 59.48231,7.83992 Z M63.95106,7.83992 L66.54481,7.83992 L56.04481,14.43367 L56.04481,12.80867 L63.95106,7.83992 Z M69.29481,7.83992 L71.91981,7.83992 L56.04481,17.80867 L56.04481,16.18367 L69.29481,7.83992 Z M74.66981,7.83992 L77.32606,7.83992 L56.04481,21.21492 L56.04481,19.55867 L74.66981,7.83992 Z M80.04481,7.83992 L82.66981,7.83992 L56.29481,24.40242 C56.07289,23.870918 56.04369,23.562184 56.04481,22.93367 L80.04481,7.83992 Z M85.13856,8.02742 C85.63947,8.195745 86.08301,8.477123 86.45106,8.83992 L58.57606,26.37117 C58.04489,26.225061 57.56495,25.951195 57.16981,25.58992 L85.13856,8.02742 Z M87.26356,10.08992 C87.47255,10.625284 87.47714,10.948751 87.48231,11.55867 L63.70106,26.52742 L61.07606,26.52742 L87.26356,10.08992 Z M87.48231,13.30867 L87.48231,14.93367 L69.04481,26.52742 L66.48231,26.52742 L87.48231,13.30867 Z M87.48231,16.68367 L87.48231,18.33992 L74.41981,26.52742 L71.82606,26.52742 L87.48231,16.68367 Z M87.48231,20.05867 L87.48231,21.71492 L79.82606,26.52742 L77.20106,26.52742 L87.48231,20.05867 Z M87.45111,23.46492 C87.26064,25.184545 85.81526,26.52742 84.04486,26.52742 L82.54486,26.52742 L87.45111,23.46492 Z" id="Shape"></path>
                        <path d="M15.96825,6.375 C13.25416,6.375 11.062,8.567165 11.062,11.28125 L11.062,23.09375 C11.062,25.807836 13.25416,28 15.96825,28 L40.53075,28 C43.24484,28 45.437,25.807836 45.437,23.09375 L45.437,11.28125 C45.437,8.567165 43.24484,6.375 40.53075,6.375 L15.96825,6.375 Z M15.96825,7.84375 L17.65575,7.84375 L12.562,11.0625 C12.67836,9.267968 14.14431,7.84375 15.96825,7.84375 L15.96825,7.84375 Z M20.437,7.84375 L23.03075,7.84375 L12.53075,14.4375 L12.53075,12.8125 L20.437,7.84375 Z M25.78075,7.84375 L28.40575,7.84375 L12.53075,17.8125 L12.53075,16.1875 L25.78075,7.84375 Z M31.15575,7.84375 L33.812,7.84375 L12.53075,21.21875 L12.53075,19.5625 L31.15575,7.84375 Z M36.53075,7.84375 L39.15575,7.84375 L12.78075,24.40625 C12.55883,23.874748 12.52963,23.566014 12.53075,22.9375 L36.53075,7.84375 Z M41.6245,8.03125 C42.12541,8.199575 42.56895,8.480953 42.937,8.84375 L15.062,26.375 C14.53083,26.228891 14.05089,25.955025 13.65575,25.59375 L41.6245,8.03125 Z M43.7495,10.09375 C43.95849,10.629114 43.96308,10.952581 43.96825,11.5625 L20.187,26.53125 L17.562,26.53125 L43.7495,10.09375 Z M43.96825,13.3125 L43.96825,14.9375 L25.53075,26.53125 L22.96825,26.53125 L43.96825,13.3125 Z M43.96825,16.6875 L43.96825,18.34375 L30.90575,26.53125 L28.312,26.53125 L43.96825,16.6875 Z M43.96825,20.0625 L43.96825,21.71875 L36.312,26.53125 L33.687,26.53125 L43.96825,20.0625 Z M43.93705,23.46875 C43.74658,25.188375 42.3012,26.53125 40.5308,26.53125 L39.0308,26.53125 L43.93705,23.46875 Z" id="Shape"></path>
                        <path d="M9.94505,0.373626 C7.21398,0.373626 5,2.587602 5,5.318681 L5,29.054945 C5,31.786025 7.21398,34 9.94505,34 L44.52953,34 C44.52953,34 45.51854,33.010989 46.01305,32.516484 C46.5024,32.027129 47.48111,31.04842 47.48111,31.04842 C48.15702,30.372514 49.0523,30.043956 49.93819,30.043956 C50.82407,30.043956 51.7039,30.372514 52.37981,31.04842 C52.37981,31.04842 53.35852,32.027129 53.84787,32.516484 C54.34238,33.010989 55.33139,34 55.33139,34 L90.05495,34 C92.78602,34 95,31.786025 95,29.054945 L95,5.318681 C95,2.587602 92.78602,0.373626 90.05495,0.373626 L9.94505,0.373626 Z M9.94505,1.857143 L90.05495,1.857143 C91.9667,1.857143 93.51648,3.406928 93.51648,5.318681 L93.51648,29.054945 C93.51648,30.966698 91.9667,32.516484 90.05495,32.516484 L55.93407,32.516484 L53.43063,30.013049 C52.46505,29.047466 51.20374,28.56044 49.93819,28.56044 C48.67264,28.56044 47.39587,29.047466 46.43029,30.013049 L43.92685,32.516484 L9.94505,32.516484 C8.0333,32.516484 6.48352,30.966698 6.48352,29.054945 L6.48352,5.318681 C6.48352,3.406928 8.0333,1.857143 9.94505,1.857143 L9.94505,1.857143 Z" id="Shape"></path>
                        <text id="Created-by-Magicon" font-family="Helvetica-Bold, Helvetica" font-size="5" font-weight="bold">
                            <tspan x="-4.54747351e-13" y="82">Created by Magicon</tspan>
                        </text>
                        <text id="from-the-Noun-Project" font-family="Helvetica-Bold, Helvetica" font-size="5" font-weight="bold">
                            <tspan x="0" y="87">from the Noun Project</tspan>
                        </text>
                    </g>
                </g>
            </g>
        </g>
    </g>
</svg>