<?xml version="1.0" encoding="UTF-8" standalone="no"?>
<svg width="126px" height="126px" viewBox="0 0 126 126" version="1.1" xmlns="http://www.w3.org/2000/svg" xmlns:xlink="http://www.w3.org/1999/xlink">
    <!-- Generator: Sketch 41.2 (35397) - http://www.bohemiancoding.com/sketch -->
    <title>icon</title>
    <desc>Created with Sketch.</desc>
    <defs>
        <circle id="path-1" cx="63" cy="63" r="63"></circle>
    </defs>
    <g id="Home" stroke="none" stroke-width="1" fill="none" fill-rule="evenodd">
        <g id="HOMEPAGE" transform="translate(-289.000000, -1008.000000)">
            <g id="3Items" transform="translate(0.000000, 881.000000)">
                <g id="headset" transform="translate(185.000000, 127.000000)">
                    <g id="icon" transform="translate(104.000000, 0.000000)">
                        <mask id="mask-2" fill="white">
                            <use xlink:href="#path-1"></use>
                        </mask>
                        <use id="Mask" fill="#425456" xlink:href="#path-1"></use>
                        <g id="noun_718885_cc" mask="url(#mask-2)">
                            <g transform="translate(15.000000, 22.000000)" id="Group">
                                <g>
                                    <path d="M68.8312072,46.5360057 C65.7217477,46.4893126 63.2086667,43.8373588 63.2086667,40.5847624 L63.2086667,39.5458417 L22.9536577,39.5458417 C19.6656036,39.5458417 16.9898739,36.8747862 16.9898739,33.5945985 C16.9898739,30.3112271 19.6656036,27.6412328 22.9536577,27.6412328 L63.2086667,27.6412328 L63.2086667,26.6033733 C63.2086667,23.3507769 65.7217477,20.6977619 68.8312072,20.6510688 L74.8183784,20.1660977 C73.378991,15.721767 71.1082883,11.8526099 68.5197297,8.90564079 C58.3706667,-2.64452536 31.220036,-2.40044798 19.4891351,7.76059951 C13.7262703,12.7514513 7.65724324,20.5672336 7.45100901,30.5054278 C7.18736937,43.0669233 12.8162883,51.1777208 17.9838378,59.0465633 C19.637964,61.5637439 21.881027,64.6094052 22.2818018,67.6295974 C23.1173694,73.9374059 22.2020721,79.0884999 19.5529189,83.0807569 C17.6968108,85.8780959 11.5582589,92.1980888 9.78613281,94.3916016 C9.78613281,94.3916016 49.7907174,112.161913 65.8515625,113.558594 C77.5359497,110.989258 63.6065537,103.926758 65.2539062,103.926758 C67.6952151,103.926758 56.236036,90.5060153 56.236036,90.5060153 C54.1651892,86.6984081 53.4359279,80.4213746 56.3115135,80.4298643 C60.5722703,80.5508417 63.6083784,81.577028 67.8553153,80.9360595 C71.0647027,80.4500272 73.0441261,79.5692262 73.6607027,76.6445424 C74.3825225,73.2189695 72.4785766,72.7626509 72.7996216,71.0647213 C73.2407928,68.7215784 74.6844324,67.5574354 75.4158198,64.8418093 C76.4108468,61.1477512 74.5845045,58.9139125 76.1482703,58.1583339 C78.216991,56.8615401 80.0220721,56.943253 81.8271532,55.1848346 C83.2272072,53.873184 81.3944865,50.7511159 79.2237117,47.3786033 L68.8312072,46.5360057 Z" id="Shape" fill="#FCF6E0"></path>
                                    <path d="M115.753748,20.6500076 L75.7963964,23.8856247 L68.9927928,24.4363907 L68.9173153,24.4363907 C67.8616937,24.4363907 67.0016757,25.4084554 67.0016757,26.6033733 L67.0016757,31.4276158 L22.9536577,31.4276158 C21.7566486,31.4276158 20.7828829,32.3996805 20.7828829,33.5945985 C20.7828829,34.7884552 21.7566486,35.7594587 22.9536577,35.7594587 L67.0006126,35.7594587 L67.0006126,40.5847624 C67.0006126,41.7796804 67.8606306,42.7517451 68.9162523,42.7517451 L69.0703964,42.7570511 L76.6787387,43.3725506 L115.753748,46.5360057 C116.78173,46.4988635 117.605604,45.5405945 117.605604,44.3711454 L117.605604,22.8148679 C117.605604,21.6443577 116.78173,20.6871498 115.753748,20.6500076 Z" id="Shape" fill="#FCF6E0"></path>
                                </g>
                            </g>
                        </g>
                    </g>
                </g>
            </g>
        </g>
    </g>
</svg>