<?xml version="1.0" encoding="UTF-8" standalone="no"?>
<svg width="126px" height="126px" viewBox="0 0 126 126" version="1.1" xmlns="http://www.w3.org/2000/svg" xmlns:xlink="http://www.w3.org/1999/xlink">
    <!-- Generator: Sketch 41.2 (35397) - http://www.bohemiancoding.com/sketch -->
    <title>heretohelp</title>
    <desc>Created with Sketch.</desc>
    <defs>
        <circle id="path-1" cx="63" cy="63" r="63"></circle>
    </defs>
    <g id="Home" stroke="none" stroke-width="1" fill="none" fill-rule="evenodd">
        <g id="HOMEPAGE" transform="translate(-656.000000, -1009.000000)">
            <g id="3Items" transform="translate(0.000000, 881.000000)">
                <g id="here-to-help" transform="translate(552.000000, 128.000000)">
                    <g id="heretohelp" transform="translate(104.000000, 0.000000)">
                        <mask id="mask-2" fill="white">
                            <use xlink:href="#path-1"></use>
                        </mask>
                        <use id="Mask" fill="#425456" xlink:href="#path-1"></use>
                        <g id="noun_578420_cc" mask="url(#mask-2)">
                            <g transform="translate(14.000000, 19.000000)" id="Group">
                                <g>
                                    <g id="Shape" fill="#FCF6E0">
                                        <path d="M71.5903451,33.0254515 C71.6541466,31.7698453 70.9832017,30.0534861 69.7133459,29.7346713 C69.0712146,29.5730803 68.4867104,29.8591401 68.1738772,29.121062 C67.9968795,28.7039824 68.2932478,27.5968652 68.3405844,27.1492143 C68.4578968,26.0355462 68.5175821,24.8476335 68.7748463,23.7579856 C69.2523285,21.7359137 69.5466387,19.6636175 69.6186727,17.5782193 C69.8368327,11.15825 66.8505105,5.87596916 61.3183023,3.26430819 C60.6885196,2.96733002 60.0525627,2.69437214 59.4124895,2.44325089 C55.8457793,1.04570656 52.1432338,0.366587359 48.3542474,0.333832413 C47.5351184,0.325097761 46.7139312,0.349118055 45.8865697,0.401525967 C43.2398362,0.56966802 40.4119887,0.788034322 37.9875314,2.03272224 C37.7467321,2.15719104 37.5162235,2.29257814 37.2939472,2.44543455 C36.398668,3.05467654 35.6515729,3.88010116 35.0588363,4.82344358 C34.4578673,5.78207165 34.2582303,6.32143642 33.3732417,7.07480016 C32.5932168,7.73863372 31.8934583,8.22777423 31.0249345,8.63393556 C30.2552002,8.99642362 29.5657323,9.57291065 29.1479353,10.3633967 C28.2917602,11.9771236 27.9871595,13.938053 27.9171836,15.7701463 C27.8266267,18.0629925 27.923358,20.3580223 28.0756584,22.6465012 C28.1291693,23.4588238 28.2752953,24.2711464 28.4296538,25.0812854 C28.6663368,26.321606 28.9153685,27.559743 28.87009,28.8109819 C28.8556832,29.1996739 28.705441,29.4202239 28.4790485,29.5621619 C28.4070146,29.5796313 28.3329225,29.5927332 28.2526561,29.6036515 C27.832801,29.6538758 27.4047135,29.6364065 26.9951489,29.7412223 C25.7252931,30.0600371 25.0543482,31.7763963 25.1181497,33.0320025 C25.122266,33.1106144 25.1263822,33.1935936 25.1325565,33.2722054 C25.0975686,33.8596108 25.1181497,34.4535671 25.1490214,35.0344215 C25.2169392,36.2157832 25.4412735,37.3840429 25.577109,38.5632209 C25.8796516,41.1770656 27.0342531,43.688278 29.3887346,44.932966 C29.8806236,45.3478619 30.2058055,45.7758599 30.3848613,46.513938 C31.7987851,52.3486856 34.5504824,57.0522957 39.0145299,60.290668 C39.5661042,60.6880946 40.1423759,61.0658683 40.7495193,61.4218054 C41.471917,61.8126811 42.4392302,62.2712503 43.6926211,62.7254522 C43.7625969,62.7582072 43.8325728,62.7909621 43.9025486,62.8215334 C44.6661086,63.1687358 45.4214361,63.4133061 46.1994029,63.5705298 C46.9176844,63.7124679 47.6339078,63.7736105 48.3521893,63.7583249 C49.0704708,63.7736105 49.7866942,63.7124679 50.529673,63.5639788 C51.2850006,63.4133061 52.0423862,63.1687358 52.8038881,62.8215334 C52.8738639,62.7909621 52.9438398,62.7582072 53.0138156,62.7451052 C54.2672065,62.273434 55.2345197,61.8148648 55.9610337,61.4218054 C56.5640608,61.068052 57.1403325,60.6902783 57.6919069,60.2928516 C60.0134585,58.6201658 61.9707241,56.4212171 63.4443332,53.8903517 C64.1934864,52.6019905 64.7944554,51.2415684 65.3254486,49.8396568 C65.8379188,48.4814184 65.8338026,46.9746909 66.7290818,45.7998802 C67.3856199,44.9373333 68.2500274,44.284418 69.0197617,43.5354216 C70.4089881,42.1859179 70.9070515,40.5088647 71.1293277,38.5654046 C71.2651632,37.3862266 71.4915557,36.2201505 71.5574153,35.0366051 C71.5903451,34.4579344 71.6088681,33.8617944 71.5738802,33.2743891 C71.5841708,33.1870426 71.5862289,33.1040634 71.5903451,33.0254515 Z"></path>
                                        <path d="M86.5610603,76.7816911 L70.0673413,70.1389882 C68.7892531,69.8005204 67.5482108,69.4751546 66.3133429,69.1366869 L65.0146735,68.7982191 C64.7676999,68.7370765 64.5104358,68.7261582 64.2140675,68.7152399 C64.0308954,68.7086889 63.823026,68.6999543 63.5781105,68.6781176 L63.2673354,68.9226879 C63.1953015,69.2174824 63.1232675,69.5122769 63.0368268,69.8092551 C62.8166087,70.6805366 62.5984487,71.5518182 62.3802887,72.4230997 C61.5426366,75.7706551 60.6741128,79.231761 59.7026834,82.5858674 C58.2496555,87.5733538 56.5867001,92.5914114 54.9772556,97.4478779 C54.9587326,97.5286735 54.9443258,97.5657957 54.9237446,97.6182037 C54.8496526,97.8431209 54.7632118,98.0636709 54.6685386,98.2864045 C54.5285869,97.1902057 54.3762865,95.9760891 54.2198699,94.7095645 C54.0737439,93.5391211 53.9235016,92.3228208 53.7691432,91.1174388 C53.0961402,85.6015061 52.5342753,80.8345697 52.4787062,80.2384297 L52.530159,80.1095936 C52.7524353,79.5571268 52.9644209,79.0352313 53.1928715,78.5155195 C53.2360919,78.4041527 53.256673,78.3495612 53.2834285,78.2993369 L53.3966247,78.0132771 C53.4974722,77.7556048 53.6003779,77.4891979 53.7073998,77.2533623 C53.767085,77.1638321 53.8123635,77.067751 53.857642,76.9738535 C53.8802813,76.9258129 53.9049786,76.8777723 53.9399666,76.8122624 L54.0284654,76.6222837 C54.2301605,76.1986531 54.4586111,75.7204309 54.4586111,75.1308419 C54.4586111,74.6351504 54.293962,74.1874994 54.1601847,73.827195 L54.0305235,73.5083802 C53.9955356,73.4079317 53.9811288,73.3642585 53.9461409,73.2921976 C53.911153,73.1808308 53.8494096,73.0410764 53.7382715,72.8248937 C53.6909349,72.7462818 53.6333077,72.6502007 53.6333077,72.6502007 C53.5365764,72.4689566 53.3945666,72.3051819 53.2360919,72.1872641 C52.9870602,72.0060201 52.7442028,71.9514285 52.5795537,71.9143062 L52.2276164,71.9077552 C52.0588511,71.8182251 51.8900858,71.8160414 51.8365749,71.8182251 C51.3179304,71.7832865 50.0130866,71.7832865 48.3418987,71.7832865 C46.691292,71.7832865 45.3885063,71.7832865 44.8883848,71.8182251 C44.8163509,71.8182251 44.6475856,71.8182251 44.4788203,71.9077552 L44.1865682,71.9077552 C43.9622339,71.9514285 43.7173184,72.0060201 43.4662286,72.1872641 C43.309812,72.3029983 43.1698603,72.466773 43.0710709,72.648017 C43.0237343,72.7266289 42.9517003,72.8467303 42.9517003,72.8467303 C42.8529109,73.0388927 42.7932256,73.1786471 42.7582377,73.2878303 C42.7232498,73.3577075 42.708843,73.4035644 42.6923781,73.4494213 C42.6882619,73.464707 42.5441939,73.8206441 42.5441939,73.8206441 C42.4104166,74.1809485 42.2457675,74.6285994 42.2457675,75.1242909 C42.2457675,75.7138799 42.4742181,76.1921021 42.6759132,76.6157327 L42.7747026,76.8253644 C42.7994,76.8712213 42.8220392,76.9192619 42.8467366,76.9673025 C42.8920151,77.0590163 42.9393517,77.1550975 42.9990369,77.2446277 C43.1060588,77.4804633 43.2089645,77.7468702 43.309812,78.0023587 L43.4086015,78.2556637 C43.4518218,78.3408265 43.472403,78.3976017 43.4929841,78.4500097 C43.746132,79.0264967 43.9560596,79.5483922 44.1803939,80.1030426 L44.2318467,80.2318787 C44.1742196,80.85859 43.6144128,85.6124244 42.9434679,91.1087042 C42.7911675,92.3162698 42.6388671,93.5325701 42.4927411,94.7030135 C42.3342664,95.9695381 42.1840241,97.1814711 42.0440724,98.2776699 C41.9493992,98.0527526 41.8609004,97.8278353 41.7847502,97.596367 C41.7703434,97.5592448 41.7312392,97.421674 41.7312392,97.421674 C40.125911,92.5739421 38.4650136,87.5624354 37.0119857,82.5793164 C36.0384982,79.2230264 35.1720326,75.7575532 34.3323224,72.4078141 C34.1141624,71.5408999 33.8980605,70.671802 33.6737262,69.7917858 C33.5893435,69.5035423 33.5152515,69.1978294 33.4432175,68.9030349 L33.3814741,68.64973 C32.8895851,68.6934033 32.6817156,68.6999543 32.4985436,68.7086889 C32.2021753,68.7196072 31.9469692,68.7305256 31.6958794,68.7916681 L30.3951519,69.1301359 C29.1623421,69.4686037 27.9212999,69.7939694 26.6781995,70.1215189 L10.1618413,76.7707728 C0.330234724,80.2580826 0.815949432,87.3528038 0.822123771,87.3942934 L0.822123771,101.005065 C1.71946111,109.34229 7.75179081,109.447106 8.04404288,109.447106 L88.6932655,109.447106 C88.9505297,109.447106 94.9952081,109.351025 95.8904873,101.040004 L95.8904873,87.422681 C95.8946035,87.3593548 96.3803182,80.2646336 86.5610603,76.7816911 Z"></path>
                                    </g>
                                </g>
                            </g>
                        </g>
                    </g>
                </g>
            </g>
        </g>
    </g>
</svg>