<?xml version="1.0" encoding="UTF-8" standalone="no"?>
<svg width="126px" height="126px" viewBox="0 0 126 126" version="1.1" xmlns="http://www.w3.org/2000/svg" xmlns:xlink="http://www.w3.org/1999/xlink">
    <!-- Generator: Sketch 41.2 (35397) - http://www.bohemiancoding.com/sketch -->
    <title>isolationnation</title>
    <desc>Created with Sketch.</desc>
    <defs>
        <circle id="path-1" cx="63" cy="63" r="63"></circle>
    </defs>
    <g id="Home" stroke="none" stroke-width="1" fill="none" fill-rule="evenodd">
        <g id="HOMEPAGE" transform="translate(-1021.000000, -1009.000000)">
            <g id="3Items" transform="translate(0.000000, 881.000000)">
                <g id="isolation" transform="translate(912.000000, 128.000000)">
                    <g id="isolationnation" transform="translate(109.000000, 0.000000)">
                        <mask id="mask-2" fill="white">
                            <use xlink:href="#path-1"></use>
                        </mask>
                        <use id="Mask" fill="#425456" xlink:href="#path-1"></use>
                        <g id="noun_658329_cc" mask="url(#mask-2)">
                            <g transform="translate(-19.000000, 22.000000)" id="Group">
                                <g>
                                    <g transform="translate(17.989824, 0.000000)" id="Shape" fill="#FCF6E0">
                                        <path d="M114.564105,81.0888782 C113.476539,80.0061029 111.716807,80.0061029 110.632511,81.0888782 C107.917683,83.7974472 104.313176,85.2878939 100.479708,85.2878939 C96.6446051,85.2878939 93.0384631,83.7974472 90.3219997,81.0888782 C89.7790341,80.5474906 89.0659829,80.2767968 88.3562026,80.2767968 C87.6431513,80.2767968 86.933371,80.5474906 86.3904054,81.0888782 C85.0558876,82.4195178 83.502221,83.4533725 81.8177193,84.1643515 L81.8291673,63.3062506 C86.5146988,59.7676626 89.4781134,54.1629959 89.4846551,48.0789075 L89.4437692,40.7473446 L89.4519464,30.2196377 C89.4568527,28.0622405 88.6178727,26.0320368 87.0903731,24.5040843 C85.5628735,22.9761318 83.528388,22.1346979 81.3647028,22.1330673 L81.3532547,22.1330673 C80.4194193,22.1330673 79.5199281,22.3189654 78.6645938,22.6190116 L78.672771,12.6375844 C78.6776773,8.75166035 75.5081974,5.58486871 71.606041,5.57671528 C71.0287312,5.57671528 70.4775884,5.66477231 69.9395292,5.79522717 C69.2657285,2.60234456 66.4249717,0.193821771 63.024895,0.192191085 C59.6019221,0.192191085 56.7415401,2.62191279 56.0890002,5.83599431 C55.5574826,5.70717014 55.0112462,5.6207438 54.4404781,5.6207438 L54.4224883,5.6207438 C52.541734,5.6207438 50.7689186,6.35129099 49.4327653,7.67703847 C48.0949766,9.00767801 47.3541229,10.7786027 47.3524875,12.6636754 L47.350852,15.2532043 C46.8634914,15.1472097 46.3614117,15.0819823 45.8413423,15.0819823 C41.9408214,15.0819823 38.7664351,18.2422512 38.7631643,22.1249138 L38.7353618,48.0479245 L38.7353618,48.0479245 L38.7353618,48.0495552 C38.7337264,54.2200699 41.6726094,59.8002764 46.3712244,63.3160347 L46.3581408,84.1398912 C44.6899935,83.4289122 43.1559522,82.4064723 41.8328824,81.0872476 C40.7469512,80.0044723 38.9872194,80.0044723 37.9012882,81.0872476 C35.1864602,83.7958165 31.5803182,85.2862633 27.7452148,85.2862633 C23.908476,85.2862633 20.3006986,83.7958165 17.5842352,81.0872476 C16.498304,80.0044723 14.7385721,80.0044723 13.6526409,81.0872476 C12.5667097,82.1700229 12.5667097,83.9246407 13.6526409,85.007416 C17.4206913,88.7628852 22.4234978,90.8305947 27.7452148,90.8305947 C32.1903368,90.8305947 36.4032265,89.3695003 39.8670853,86.7049598 C43.3325796,89.3695003 47.5438338,90.8305947 51.9889557,90.8305947 C56.4340777,90.8305947 60.6469674,89.3695003 64.1108262,86.7033291 C67.574685,89.3695003 71.7875747,90.8305947 76.2326967,90.8305947 C80.6761832,90.8305947 84.8890728,89.3695003 88.3545671,86.7033291 C91.8216968,89.3695003 96.0345865,90.8305947 100.478073,90.8305947 C105.796519,90.8305947 110.799326,88.7612545 114.56247,85.007416 C115.650036,83.9279021 115.650036,82.1716536 114.564105,81.0888782 Z M66.0782588,81.0888782 C65.5352932,80.5474906 64.822242,80.2767968 64.1108262,80.2767968 C63.3994104,80.2767968 62.6863592,80.5474906 62.1433936,81.0888782 C59.4285657,83.7974472 55.8224237,85.2878939 51.9889557,85.2878939 C51.9644242,85.2878939 51.941528,85.2846326 51.9169964,85.2846326 L51.93008,66.1958257 C52.3700129,66.3376954 52.8115813,66.4730423 53.2645978,66.5839289 C53.4886529,66.6393722 53.7110725,66.6654632 53.9318567,66.6654632 C55.1813318,66.6654632 56.3163261,65.8191373 56.6286949,64.5569866 C56.9966686,63.0714319 56.0857293,61.5679397 54.5958448,61.2010354 C53.2858585,60.8781596 52.0674568,60.3644936 50.9520877,59.7073273 C50.7296681,59.5181677 50.4843523,59.3550992 50.2095986,59.2425819 C46.5854668,56.7786157 44.2909465,52.6464582 44.2942174,48.0544472 L44.3220199,22.1314366 C44.3220199,21.3030482 45.0023623,20.6279443 45.836436,20.6279443 C46.6656033,20.6279443 47.3377685,21.3014175 47.3443103,22.1281752 L47.3328622,36.9364321 C47.3312268,38.467646 48.5757955,39.7102285 50.1114723,39.7118592 L50.1131077,39.7118592 C51.6471491,39.7118592 52.8917178,38.472538 52.8933533,36.9413241 L52.9064368,22.1412207 C52.9064368,22.1346979 52.9048013,22.1281752 52.9048013,22.1216525 L52.9113431,12.6734595 C52.9113431,12.2706801 53.0699806,11.892361 53.3561824,11.6086217 C53.6407487,11.3248824 54.018535,11.1683366 54.4224883,11.1683366 L54.4273946,11.1683366 C55.2614683,11.1683366 55.9401753,11.8450711 55.9385398,12.6734595 L55.92055,34.1381754 C55.9189146,35.6693893 57.1634833,36.9119718 58.6991601,36.9136025 L58.7007955,36.9136025 C60.0434906,36.9136025 61.163766,35.9645434 61.4238007,34.7023927 C61.4614158,34.5230172 61.481041,34.3354884 61.481041,34.1446982 L61.5039372,7.2400147 C61.5039372,6.41325705 62.1842796,5.74141454 63.0199887,5.74141454 C63.8524269,5.74141454 64.527863,6.41977979 64.527863,7.24816813 L64.5033314,34.1446982 L64.5033314,34.1495902 L64.5033314,34.1495902 L64.5033314,34.1495902 C64.501696,35.4900139 65.4535212,36.6070336 66.7193507,36.8679433 C66.9008843,36.9054491 67.0889598,36.9250173 67.2803061,36.9250173 L67.283577,36.9250173 C68.8176183,36.9250173 70.062187,35.6856961 70.0638225,34.156113 L70.0867186,12.629431 C70.0867186,11.8010426 70.7654256,11.1275694 71.5962284,11.1275694 C72.4303021,11.1275694 73.109009,11.8059347 73.1073736,12.6359537 L73.0844775,38.9014084 C69.1218099,40.5989522 61.0312954,45.1420426 60.7728961,54.0439558 C60.7287393,55.573539 61.9373284,56.8503659 63.4713697,56.8943944 C63.4991722,56.8960251 63.5253392,56.8960251 63.5531417,56.8960251 C65.0512034,56.8960251 66.2875949,55.7072552 66.3301163,54.203763 C66.5492651,46.6553189 76.7315054,43.4347146 76.8279963,43.4053623 C78.0006057,43.0515035 78.8003352,41.9752509 78.8019706,40.755498 L78.8101478,30.2098536 C78.8101478,29.5347497 79.0750888,28.8987822 79.5559078,28.4209913 C80.0350913,27.9448311 80.6729123,27.68066 81.3516193,27.68066 L81.3548902,27.68066 C82.0335972,27.68066 82.6697827,27.9448311 83.1489662,28.422622 C83.6265143,28.9004129 83.8881845,29.5363804 83.886549,30.2147456 L83.8783718,40.7620208 C83.8783718,40.7652821 83.8800073,40.7669128 83.8800073,40.7701742 C83.8800073,40.7734356 83.8783718,40.7766969 83.8783718,40.7799583 L83.9192578,48.0952144 C83.9159869,52.6399354 81.5789452,56.8177522 77.9760741,59.2751956 C77.6915078,59.3942356 77.4363794,59.5654576 77.2090535,59.7676626 C76.3062914,60.2960048 75.3364763,60.7232445 74.3126918,61.0249213 L68.0734938,62.6017944 C66.5852447,62.9768521 65.6841181,64.4852364 66.0635398,65.9691604 C66.3808149,67.2247884 67.5141738,68.0596995 68.7554717,68.0596995 C68.9811622,68.0596995 69.2101236,68.0319778 69.4407204,67.9732731 L75.7845865,66.3686784 C75.9481304,66.3213885 76.1002261,66.2594224 76.2621346,66.2056098 L76.2506865,85.2878939 C76.2441447,85.2878939 76.237603,85.2895246 76.2294258,85.2895246 C72.4008642,85.2895246 68.7930867,83.7990779 66.0782588,81.0888782 Z"></path>
                                        <path d="M98.509005,97.1299335 C92.9125343,102.713401 83.8047771,102.708509 78.2034001,97.1348256 C78.2017647,97.1331949 78.2001292,97.1315642 78.1984938,97.1299335 C78.0627524,96.9945866 77.9155629,96.8755466 77.7601963,96.774444 C77.1714384,96.3847102 76.4632935,96.2509939 75.7894928,96.3586192 C75.7600549,96.3635112 75.730617,96.3618806 75.7011791,96.3684033 C75.6341262,96.3814488 75.570344,96.4075398 75.5032911,96.4254773 C75.05191,96.5477787 74.6217897,96.774444 74.2652641,97.1299335 C71.5504361,99.8368718 67.9426587,101.327319 64.1075553,101.327319 C60.2724519,101.327319 56.6679454,99.8368718 53.9580237,97.1315642 C53.4150581,96.5885459 52.7003715,96.317852 51.9889557,96.317852 C51.2742691,96.317852 50.5628533,96.5885459 50.0198877,97.1299335 C44.4217816,102.711771 35.3172953,102.713401 29.711012,97.1348256 C29.7093765,97.1331949 29.7077411,97.1315642 29.7061056,97.1299335 C29.5000404,96.9244671 29.2629018,96.769552 29.017586,96.6423585 C28.3339727,96.2852383 27.5391496,96.2314257 26.8195566,96.4825513 C26.4384994,96.6162675 26.078703,96.8249953 25.7728759,97.1283028 C20.1731344,102.711771 11.0637417,102.711771 5.45745841,97.1283028 C4.37316266,96.0438969 2.61179535,96.0455275 1.5274996,97.1299335 C0.441568406,98.2127088 0.441568406,99.9673267 1.52913503,101.048471 C5.41493701,104.92135 10.5158698,106.856974 15.6184381,106.856974 C19.903287,106.856974 24.1766879,105.472522 27.7403085,102.744384 C31.3039291,105.474152 35.5789654,106.856974 39.8638144,106.856974 C44.1486634,106.856974 48.4220643,105.472522 51.9840494,102.744384 C55.4479083,105.410556 59.6607979,106.870019 64.1059199,106.870019 C68.5510418,106.870019 72.765567,105.408925 76.2310612,102.744384 C79.7946818,105.474152 84.0680827,106.855343 88.3529317,106.855343 C93.4538645,106.855343 98.5547973,104.919719 102.437328,101.048471 C103.52326,99.965696 103.52326,98.2110782 102.437328,97.1283028 C101.351397,96.0455275 99.5949362,96.0471582 98.509005,97.1299335 Z"></path>
                                    </g>
                                </g>
                            </g>
                        </g>
                    </g>
                </g>
            </g>
        </g>
    </g>
</svg>