<?xml version="1.0" encoding="UTF-8" standalone="no"?>
<svg width="160px" height="156px" viewBox="0 0 160 156" version="1.1" xmlns="http://www.w3.org/2000/svg" xmlns:xlink="http://www.w3.org/1999/xlink">
    <!-- Generator: Sketch 41.2 (35397) - http://www.bohemiancoding.com/sketch -->
    <title>Shape</title>
    <desc>Created with Sketch.</desc>
    <defs></defs>
    <g id="Home" stroke="none" stroke-width="1" fill="none" fill-rule="evenodd">
        <g id="HOMEPAGE" transform="translate(-644.000000, -263.000000)" fill="#FCF6E0">
            <path d="M799.588604,399.941924 L781.380357,364.398091 C781.208788,364.062775 780.984195,363.756602 780.716034,363.490292 L749.67964,332.706874 C752.940799,330.675214 755.110064,327.078188 755.110064,322.976345 C755.110064,321.107486 754.657162,319.344816 753.858759,317.785144 L802.945004,269.099 C804.351665,267.703804 804.351665,265.441342 802.945004,264.046146 C801.538004,262.651285 799.257625,262.651285 797.850626,264.046146 L748.764381,312.73229 C747.19223,311.940395 745.414737,311.491185 743.530519,311.491185 C738.230123,311.491185 733.764606,315.0249 732.390029,319.845612 L699.965211,287.685088 C699.696713,287.419113 699.388024,287.196685 699.049614,287.02618 L663.213684,268.966682 C661.441257,268.073623 659.271992,268.774068 658.37058,270.533724 C657.469168,272.292709 658.176721,274.443287 659.950499,275.337352 L693.581027,292.285717 L696.398741,297.242097 L670.284143,289.41359 C668.381688,288.842112 666.369132,289.911037 665.793971,291.80033 C665.218472,293.688953 666.295506,295.683095 668.200325,296.253903 L701.514059,306.240023 L704.763396,311.955804 L676.04791,303.348131 C674.145117,302.776654 672.133236,303.845578 671.557738,305.734536 C670.982239,307.623159 672.059272,309.617301 673.964092,310.188109 L709.878714,320.95373 L713.122648,326.660132 L685.413946,318.354277 C683.511491,317.782799 681.498935,318.851724 680.923774,320.741017 C680.348275,322.62964 681.425309,324.623782 683.330128,325.19459 L718.237966,335.658727 L718.959703,336.996642 L717.631396,338.381788 L684.228838,341.731599 C683.788771,341.731599 683.368967,341.745333 682.979222,341.88837 L680.215884,337.483369 C679.686992,336.647256 678.574835,336.377597 677.732864,336.901842 C676.88988,337.426422 676.635229,338.5198 677.163783,339.355913 L678.974374,342.215311 L671.809349,340.133404 C670.854238,339.857045 669.854208,340.398039 669.574902,341.34503 C669.295596,342.292022 669.843063,343.283901 670.797836,343.56093 L680.129762,346.269252 L672.083589,346.334908 C671.088963,346.345962 670.291573,347.098665 670.302718,348.085519 C670.313864,349.065338 671.118008,349.771144 672.103516,349.771144 L672.124117,349.771144 L683.737097,349.723576 L684.638509,351.15964 L682.639462,354.769061 C682.15988,355.633647 682.478025,356.722335 683.349379,357.198008 C683.62497,357.348415 683.922513,357.420771 684.215666,357.420771 C684.851281,357.420771 685.467646,357.087129 685.795585,356.495888 L688.305286,351.971634 C688.620392,351.403506 688.600465,350.72383 688.253275,350.174461 L687.354565,348.7662 L709.751726,346.086352 L705.745527,350.047168 C704.897139,350.407942 646.153394,375.953262 646.153394,375.953262 C644.332333,376.747502 643.504885,378.853862 644.305652,380.66008 C644.89905,381.998999 646.21959,382.795249 647.604974,382.795249 C648.089285,382.795249 648.581363,382.6971 649.05284,382.491756 L682.035256,368.109011 L645.912927,387.141293 C644.156036,388.066846 643.488336,390.230153 644.421832,391.972725 C645.069268,393.181336 646.316182,393.870057 647.606325,393.870057 C648.176082,393.870057 648.75462,393.735395 649.292968,393.451666 L684.237957,373.786269 L650.492937,398.865295 C648.89782,400.044763 648.569205,402.283106 649.758366,403.865222 C650.46558,404.805848 651.550382,405.302625 652.64903,405.302625 C653.397786,405.302625 654.152959,405.071488 654.799382,404.59347 L686.077255,379.721128 L662.846905,408.287976 C661.657406,409.870092 661.986359,412.108435 663.581476,413.287903 C664.227899,413.765921 664.983072,413.997058 665.731828,413.997058 C666.830476,413.997058 667.915278,413.500281 668.622492,412.559655 L692.734666,379.746922 L674.080948,413.749842 C673.147789,415.492414 673.815489,417.655721 675.572043,418.581274 C676.110728,418.865003 676.688929,418.999665 677.258686,418.999665 C678.548154,418.999665 679.795743,418.310944 680.443179,417.102332 L699.632205,381.27477 L685.131263,413.988349 C684.330496,415.794566 685.157944,417.902937 686.979005,418.696842 C687.450819,418.902855 687.94256,419 688.42687,419 C689.811917,419 691.132794,418.20241 691.726193,416.863826 L717.523658,358.482995 L721.710883,354.250175 L719.009012,376.005184 L717.64558,375.106764 C717.091359,374.762404 716.433791,374.74331 715.860994,375.055177 L711.319149,377.544756 C710.447458,378.02043 710.139782,379.106773 710.619364,379.971024 C711.098947,380.83561 712.19827,381.150492 713.070637,380.675154 L716.707018,378.692067 L718.088349,379.550288 L717.957309,391.140967 C717.946164,392.127821 718.744229,392.983698 719.738517,392.983698 L719.759119,392.983698 C720.744627,392.983698 721.548771,392.144235 721.559916,391.164416 L721.650767,383.149659 L724.381683,392.413225 C724.61168,393.192726 725.33004,393.701897 726.109529,393.701897 C726.277045,393.701897 726.447263,393.680458 726.61613,393.631551 C727.570904,393.354522 728.118371,392.363313 727.839065,391.416321 L725.742075,384.310034 L728.629362,386.106202 C728.926568,386.291111 729.257547,386.379546 729.584474,386.379546 C730.183951,386.379546 730.769919,386.082753 731.112382,385.541759 C731.640597,384.705981 731.385946,383.603559 730.5433,383.079313 L726.181129,380.346203 C726.324666,379.96064 726.439158,379.545263 726.439158,379.110123 L729.816497,346.434732 L731.408912,344.823474 L732.365037,345.367148 L742.907062,379.990453 C743.377864,381.535051 744.803101,382.530949 746.349922,382.530949 C746.695086,382.530949 747.043965,382.481372 747.391155,382.377193 C749.295637,381.806385 750.371995,379.812243 749.796496,377.92362 L741.421709,350.440771 L747.174668,353.658264 L758.02876,389.280147 C758.499561,390.824745 759.928513,391.820643 761.475334,391.820643 C761.820498,391.820643 762.171404,391.771066 762.518594,391.666887 C764.423076,391.096079 765.500109,389.101937 764.924611,387.213314 L756.2462,358.731886 L762.008954,361.954739 L772.077139,394.996934 C772.54794,396.541531 773.97723,397.53743 775.524051,397.53743 C775.869215,397.53743 776.220121,397.487853 776.567311,397.383674 C778.471793,396.812866 779.549164,394.818724 778.973327,392.930101 L771.080824,367.028362 L776.077935,369.822774 L793.165581,403.17918 C793.801196,404.419615 795.066685,405.13413 796.379795,405.13413 C796.928612,405.13413 797.485873,405.009182 798.009023,404.745887 C799.782464,403.851822 800.490016,401.700909 799.588604,399.941924 Z" id="Shape"></path>
        </g>
    </g>
</svg>