<?xml version="1.0" encoding="UTF-8" standalone="no"?>
<svg width="300px" height="270px" viewBox="0 0 300 270" version="1.1" xmlns="http://www.w3.org/2000/svg" xmlns:xlink="http://www.w3.org/1999/xlink">
    <!-- Generator: Sketch 41.2 (35397) - http://www.bohemiancoding.com/sketch -->
    <title>mrilogo</title>
    <desc>Created with Sketch.</desc>
    <defs>
        <polygon id="path-1" points="52.3454673 0 247.654533 0 300 131.546852 247.654533 270 52.3454673 270 0 134.300475"></polygon>
        <mask id="mask-2" maskContentUnits="userSpaceOnUse" maskUnits="objectBoundingBox" x="0" y="0" width="300" height="270" fill="white">
            <use xlink:href="#path-1"></use>
        </mask>
    </defs>
    <g id="Home" stroke="none" stroke-width="1" fill="none" fill-rule="evenodd">
        <g id="HOMEPAGE" transform="translate(-889.000000, -1636.000000)">
            <g id="hello" transform="translate(185.000000, 1612.000000)">
                <g id="mriLogo-Copy-2" transform="translate(704.000000, 24.000000)">
                    <g id="Group-2">
                        <use id="Rectangle-5" stroke="#000000" mask="url(#mask-2)" stroke-width="16" fill="#3D1724" xlink:href="#path-1"></use>
                        <text id="MRI" font-family="AvenirNext-Heavy, Avenir Next" font-size="50" font-weight="600" fill="#FCF6E0">
                            <tspan x="97.65" y="248">MRI</tspan>
                        </text>
                        <path d="M227.820708,173.498581 L207.262479,133.397846 C207.068767,133.019541 206.815188,132.674115 206.512418,132.373663 L171.470424,97.6436532 C175.152472,95.3515239 177.601705,91.2933403 177.601705,86.6656202 C177.601705,84.5571637 177.090352,82.5685101 176.188906,80.8088804 L231.610289,25.8809228 C233.198496,24.3068555 233.198496,21.7543344 231.610289,20.180267 C230.0217,18.6065777 227.447012,18.6065777 225.858423,20.180267 L170.437041,75.1082246 C168.661985,74.2148044 166.655086,73.7080039 164.527689,73.7080039 C158.543217,73.7080039 153.501374,77.6947593 151.949392,83.1335114 L115.339782,46.8498426 C115.036631,46.5497683 114.688103,46.2988246 114.306018,46.1064596 L73.8450529,25.7316415 C71.8438735,24.7240873 69.3946404,25.5143333 68.3768912,27.4995856 C67.359142,29.484082 68.1580122,31.9103754 70.1607169,32.9190634 L108.131647,52.0402965 L111.313019,57.6321092 L81.8280352,48.7999476 C79.6800467,48.1552036 77.4077471,49.3611697 76.7583553,51.4926798 C76.1085821,53.6234341 77.3246189,55.8732354 79.4752766,56.5172236 L117.088526,67.7836151 L120.757228,74.2321891 L88.3356815,64.5209685 C86.1873117,63.8762245 83.9157747,65.0821906 83.2660016,67.2133228 C82.6162284,69.3440771 83.8322652,71.5938784 85.9829229,72.2378666 L126.532736,84.383695 L130.195336,90.821687 L98.9105113,81.450979 C96.7625229,80.8062349 94.4902233,82.012201 93.8408314,84.1437112 C93.1910582,86.2744654 94.407095,88.5242668 96.5577528,89.168255 L135.970844,100.973949 L136.78573,102.483391 L135.285989,104.04612 L97.5724514,107.825393 C97.0755885,107.825393 96.6016048,107.840888 96.1615589,108.002263 L93.0415799,103.032519 C92.4444292,102.089212 91.1887349,101.784981 90.2380984,102.376437 C89.2863179,102.968271 88.9988009,104.201826 89.5955703,105.145133 L91.6398391,108.37112 L83.5500867,106.022302 C82.4717072,105.710512 81.3426119,106.320865 81.0272584,107.389265 C80.7119048,108.457666 81.3300283,109.576709 82.4080264,109.889254 L92.9443427,112.944797 L83.8597204,113.018871 C82.7367262,113.031342 81.8364243,113.880545 81.8490079,114.993919 C81.8615915,116.099356 82.7695199,116.895649 83.8822184,116.895649 L83.905479,116.895649 L97.0172461,116.841983 L98.0349953,118.462158 L95.7779487,122.534325 C95.236471,123.509755 95.5956766,124.738019 96.5794882,125.274676 C96.8906471,125.444365 97.2265921,125.525998 97.5575798,125.525998 C98.2752284,125.525998 98.9711416,125.149582 99.3414055,124.48254 L102.175012,119.378254 C102.530785,118.737289 102.508287,117.970474 102.116288,117.350674 L101.101589,115.761867 L126.389359,112.738449 L121.866113,117.207061 C120.908232,117.614089 54.5829386,146.434449 54.5829386,146.434449 C52.5268487,147.330515 51.5926091,149.706922 52.4967243,151.744706 C53.1667076,153.255281 54.6576777,154.153615 56.2218618,154.153615 C56.768678,154.153615 57.3242645,154.042882 57.8565905,153.811212 L95.0957631,137.584525 L54.3114371,159.056844 C52.3277985,160.101057 51.5739243,162.541712 52.6278992,164.50769 C53.358894,165.871251 54.7667359,166.64827 56.2233871,166.64827 C56.8666778,166.64827 57.5198829,166.496343 58.1277106,166.176239 L97.5827471,143.989637 L59.4825487,172.283922 C57.6815635,173.614604 57.3105369,176.139915 58.6531727,177.924865 C59.4516616,178.986085 60.6764688,179.546552 61.9169103,179.546552 C62.7623018,179.546552 63.6149384,179.285782 64.3447893,178.746479 L99.6594283,150.685376 L73.4309369,182.91464 C72.0879198,184.699591 72.4593277,187.224901 74.2603129,188.555583 C74.9901638,189.094886 75.8428004,189.355655 76.688192,189.355655 C77.9286334,189.355655 79.1534406,188.795189 79.9519295,187.733969 L107.176053,150.714476 L86.1148604,189.076745 C85.0612669,191.042723 85.8151411,193.483378 87.7983984,194.527591 C88.4066074,194.847695 89.0594312,194.999622 89.7027219,194.999622 C91.1586104,194.999622 92.567215,194.222603 93.2982098,192.859042 L114.963799,152.438202 L98.5913446,189.345829 C97.6872294,191.383613 98.621469,193.762288 100.677559,194.657976 C101.210266,194.890401 101.765471,195 102.312288,195 C103.87609,195 105.367442,194.100155 106.037425,192.589957 L135.164347,126.724405 L139.891981,121.948915 L136.841403,146.493028 L135.302005,145.479427 C134.676255,145.090917 133.93382,145.069375 133.287098,145.421226 L128.159075,148.229982 C127.174882,148.766638 126.827498,149.992257 127.368976,150.967309 C127.910453,151.94274 129.151657,152.297991 130.136613,151.761713 L134.24231,149.524383 L135.801918,150.492633 L135.653965,163.569296 C135.641381,164.68267 136.542446,165.648274 137.665059,165.648274 L137.688319,165.648274 C138.801018,165.648274 139.708946,164.701188 139.72153,163.595751 L139.824106,154.553462 L142.907478,165.004664 C143.167158,165.884101 143.978231,166.45855 144.858323,166.45855 C145.047458,166.45855 145.239645,166.434363 145.430306,166.379186 C146.508304,166.06664 147.126428,164.948353 146.811074,163.879952 L144.443444,155.862602 L147.703368,157.889048 C148.038932,158.097664 148.412628,158.197437 148.781748,158.197437 C149.458595,158.197437 150.120189,157.862593 150.50685,157.252241 C151.103238,156.309312 150.815721,155.065553 149.864322,154.474097 L144.939163,151.390588 C145.101225,150.955594 145.230493,150.486964 145.230493,149.996036 L149.043716,113.131493 L150.841651,111.313663 L151.921174,111.927039 L163.823768,150.989229 C164.355331,152.731852 165.964512,153.85543 167.710968,153.85543 C168.100679,153.85543 168.494585,153.799497 168.886584,153.681961 C171.036861,153.037973 172.252135,150.788172 171.602362,148.657417 L162.146713,117.651126 L168.642157,121.281118 L180.897093,161.46991 C181.428656,163.212533 183.042031,164.336111 184.788487,164.336111 C185.178198,164.336111 185.574392,164.280177 185.966391,164.162642 C188.116668,163.518654 189.332704,161.268852 188.682931,159.138098 L178.884474,127.005205 L185.390976,130.641244 L196.758575,167.919617 C197.290138,169.66224 198.903894,170.785818 200.65035,170.785818 C201.040061,170.785818 201.436255,170.729885 201.828255,170.61235 C203.978531,169.968361 205.194949,167.71856 204.544795,165.587806 L195.633674,136.365331 L201.275719,139.518001 L220.56872,177.15087 C221.286369,178.550335 222.715183,179.356454 224.197764,179.356454 C224.817413,179.356454 225.446595,179.215487 226.037263,178.918436 C228.039587,177.909748 228.838457,175.483077 227.820708,173.498581 Z" id="Shape" fill="#FCF6E0"></path>
                    </g>
                </g>
            </g>
        </g>
    </g>
</svg>